<?xml version="1.0" encoding="utf-8" standalone="no"?>
<!DOCTYPE svg PUBLIC "-//W3C//DTD SVG 1.1//EN"
  "http://www.w3.org/Graphics/SVG/1.1/DTD/svg11.dtd">
<svg xmlns:xlink="http://www.w3.org/1999/xlink" width="728.39952pt" height="260.39952pt" viewBox="0 0 728.39952 260.39952" xmlns="http://www.w3.org/2000/svg" version="1.1">
 <metadata>
  <rdf:RDF xmlns:dc="http://purl.org/dc/elements/1.1/" xmlns:cc="http://creativecommons.org/ns#" xmlns:rdf="http://www.w3.org/1999/02/22-rdf-syntax-ns#">
   <cc:Work>
    <dc:type rdf:resource="http://purl.org/dc/dcmitype/StillImage"/>
    <dc:date>2026-09-20T08:55:32.492454</dc:date>
    <dc:format>image/svg+xml</dc:format>
    <dc:creator>
     <cc:Agent>
      <dc:title>Matplotlib v3.11.2, https://matplotlib.org/</dc:title>
     </cc:Agent>
    </dc:creator>
   </cc:Work>
  </rdf:RDF>
 </metadata>
 <defs>
  <style type="text/css">*{stroke-linejoin: round; stroke-linecap: butt}</style>
 </defs>
 <g id="figure_1">
  <g id="patch_1">
   <path d="M 0 260.39952
L 728.39952 260.39952
L 728.39952 -0
L 0 -0
z
" style="fill: #ffffff"/>
  </g>
  <g id="axes_1">
   <g id="patch_2">
    <path d="M 44.103906 222.198739
L 721.19952 222.198739
L 721.19952 22.318125
L 44.103906 22.318125
z
" style="fill: #ffffff"/>
   </g>
   <g id="matplotlib.axis_1">
    <g id="xtick_1">
     <g id="line2d_1">
      <defs>
       <path id="mf643fad8f4" d="M 0 0
L 0 3.5
" style="stroke: #000000; stroke-width: 0.8"/>
      </defs>
      <g>
       <use xlink:href="#mf643fad8f4" x="73.338269" y="222.198739" style="stroke: #000000; stroke-width: 0.8"/>
      </g>
     </g>
     <g id="text_1">
      <text style="font-size: 10px; font-family: 'DejaVu Sans'; text-anchor: middle" x="73.338269" y="236.796395" transform="rotate(-0 73.338269 236.796395)">0</text>
     </g>
    </g>
    <g id="xtick_2">
     <g id="line2d_2">
      <g>
       <use xlink:href="#mf643fad8f4" x="150.473791" y="222.198739" style="stroke: #000000; stroke-width: 0.8"/>
      </g>
     </g>
     <g id="text_2">
      <text style="font-size: 10px; font-family: 'DejaVu Sans'; text-anchor: middle" x="150.473791" y="236.796395" transform="rotate(-0 150.473791 236.796395)">50</text>
     </g>
    </g>
    <g id="xtick_3">
     <g id="line2d_3">
      <g>
       <use xlink:href="#mf643fad8f4" x="227.609314" y="222.198739" style="stroke: #000000; stroke-width: 0.8"/>
      </g>
     </g>
     <g id="text_3">
      <text style="font-size: 10px; font-family: 'DejaVu Sans'; text-anchor: middle" x="227.609314" y="236.796395" transform="rotate(-0 227.609314 236.796395)">100</text>
     </g>
    </g>
    <g id="xtick_4">
     <g id="line2d_4">
      <g>
       <use xlink:href="#mf643fad8f4" x="304.744836" y="222.198739" style="stroke: #000000; stroke-width: 0.8"/>
      </g>
     </g>
     <g id="text_4">
      <text style="font-size: 10px; font-family: 'DejaVu Sans'; text-anchor: middle" x="304.744836" y="236.796395" transform="rotate(-0 304.744836 236.796395)">150</text>
     </g>
    </g>
    <g id="xtick_5">
     <g id="line2d_5">
      <g>
       <use xlink:href="#mf643fad8f4" x="381.880358" y="222.198739" style="stroke: #000000; stroke-width: 0.8"/>
      </g>
     </g>
     <g id="text_5">
      <text style="font-size: 10px; font-family: 'DejaVu Sans'; text-anchor: middle" x="381.880358" y="236.796395" transform="rotate(-0 381.880358 236.796395)">200</text>
     </g>
    </g>
    <g id="xtick_6">
     <g id="line2d_6">
      <g>
       <use xlink:href="#mf643fad8f4" x="459.01588" y="222.198739" style="stroke: #000000; stroke-width: 0.8"/>
      </g>
     </g>
     <g id="text_6">
      <text style="font-size: 10px; font-family: 'DejaVu Sans'; text-anchor: middle" x="459.01588" y="236.796395" transform="rotate(-0 459.01588 236.796395)">250</text>
     </g>
    </g>
    <g id="xtick_7">
     <g id="line2d_7">
      <g>
       <use xlink:href="#mf643fad8f4" x="536.151402" y="222.198739" style="stroke: #000000; stroke-width: 0.8"/>
      </g>
     </g>
     <g id="text_7">
      <text style="font-size: 10px; font-family: 'DejaVu Sans'; text-anchor: middle" x="536.151402" y="236.796395" transform="rotate(-0 536.151402 236.796395)">300</text>
     </g>
    </g>
    <g id="xtick_8">
     <g id="line2d_8">
      <g>
       <use xlink:href="#mf643fad8f4" x="613.286924" y="222.198739" style="stroke: #000000; stroke-width: 0.8"/>
      </g>
     </g>
     <g id="text_8">
      <text style="font-size: 10px; font-family: 'DejaVu Sans'; text-anchor: middle" x="613.286924" y="236.796395" transform="rotate(-0 613.286924 236.796395)">350</text>
     </g>
    </g>
    <g id="xtick_9">
     <g id="line2d_9">
      <g>
       <use xlink:href="#mf643fad8f4" x="690.422447" y="222.198739" style="stroke: #000000; stroke-width: 0.8"/>
      </g>
     </g>
     <g id="text_9">
      <text style="font-size: 10px; font-family: 'DejaVu Sans'; text-anchor: middle" x="690.422447" y="236.796395" transform="rotate(-0 690.422447 236.796395)">400</text>
     </g>
    </g>
    <g id="text_10">
     <text style="font-size: 10px; font-family: 'DejaVu Sans'; text-anchor: middle" x="382.651713" y="250.797176" transform="rotate(-0 382.651713 250.797176)">Optimizer step</text>
    </g>
   </g>
   <g id="matplotlib.axis_2">
    <g id="ytick_1">
     <g id="line2d_10">
      <defs>
       <path id="m675ea0bd79" d="M 0 0
L -3.5 0
" style="stroke: #000000; stroke-width: 0.8"/>
      </defs>
      <g>
       <use xlink:href="#m675ea0bd79" x="44.103906" y="208.811947" style="stroke: #000000; stroke-width: 0.8"/>
      </g>
     </g>
     <g id="text_11">
      <text style="font-size: 10px; font-family: 'DejaVu Sans'; text-anchor: end" x="37.103906" y="212.610775" transform="rotate(-0 37.103906 212.610775)">5.0</text>
     </g>
    </g>
    <g id="ytick_2">
     <g id="line2d_11">
      <g>
       <use xlink:href="#m675ea0bd79" x="44.103906" y="168.324969" style="stroke: #000000; stroke-width: 0.8"/>
      </g>
     </g>
     <g id="text_12">
      <text style="font-size: 10px; font-family: 'DejaVu Sans'; text-anchor: end" x="37.103906" y="172.123797" transform="rotate(-0 37.103906 172.123797)">5.5</text>
     </g>
    </g>
    <g id="ytick_3">
     <g id="line2d_12">
      <g>
       <use xlink:href="#m675ea0bd79" x="44.103906" y="127.83799" style="stroke: #000000; stroke-width: 0.8"/>
      </g>
     </g>
     <g id="text_13">
      <text style="font-size: 10px; font-family: 'DejaVu Sans'; text-anchor: end" x="37.103906" y="131.636818" transform="rotate(-0 37.103906 131.636818)">6.0</text>
     </g>
    </g>
    <g id="ytick_4">
     <g id="line2d_13">
      <g>
       <use xlink:href="#m675ea0bd79" x="44.103906" y="87.351012" style="stroke: #000000; stroke-width: 0.8"/>
      </g>
     </g>
     <g id="text_14">
      <text style="font-size: 10px; font-family: 'DejaVu Sans'; text-anchor: end" x="37.103906" y="91.14984" transform="rotate(-0 37.103906 91.14984)">6.5</text>
     </g>
    </g>
    <g id="ytick_5">
     <g id="line2d_14">
      <g>
       <use xlink:href="#m675ea0bd79" x="44.103906" y="46.864033" style="stroke: #000000; stroke-width: 0.8"/>
      </g>
     </g>
     <g id="text_15">
      <text style="font-size: 10px; font-family: 'DejaVu Sans'; text-anchor: end" x="37.103906" y="50.662861" transform="rotate(-0 37.103906 50.662861)">7.0</text>
     </g>
    </g>
    <g id="text_16">
     <text style="font-size: 10px; font-family: 'DejaVu Sans'; text-anchor: middle" x="14.798438" y="122.258432" transform="rotate(-90 14.798438 122.258432)">Mean route distance</text>
    </g>
   </g>
   <g id="line2d_15">
    <path d="M 74.88098 41.817293
L 76.42369 35.725651
L 77.9664 34.288882
L 79.509111 31.403607
L 81.051821 36.234781
L 82.594532 39.428406
L 84.137242 42.134215
L 85.679953 39.754827
L 87.222663 45.66403
L 88.765374 47.928549
L 90.308084 35.645494
L 91.850794 56.839286
L 93.393505 46.666382
L 94.936215 50.468368
L 96.478926 48.109173
L 98.021636 53.113982
L 99.564347 59.772208
L 101.107057 52.133407
L 102.649768 41.965174
L 104.192478 54.906555
L 105.735188 37.881749
L 108.820609 54.242207
L 110.36332 41.766017
L 111.90603 49.974335
L 113.448741 55.875932
L 114.991451 42.980615
L 116.534162 57.926622
L 118.076872 67.012075
L 119.619582 56.116018
L 121.162293 53.696242
L 122.705003 52.750649
L 124.247714 58.185511
L 125.790424 57.02354
L 127.333135 57.770941
L 128.875845 51.98066
L 130.418556 61.871702
L 131.961266 62.323648
L 133.503976 64.837327
L 135.046687 64.582376
L 136.589397 64.903353
L 138.132108 60.20898
L 139.674818 69.897196
L 141.217529 71.887999
L 142.760239 72.896065
L 144.30295 77.857204
L 145.84566 82.135385
L 147.38837 72.155383
L 148.931081 76.157724
L 150.473791 80.621046
L 152.016502 74.33878
L 153.559212 85.871192
L 155.101923 91.048014
L 156.644633 83.070823
L 158.187344 90.126321
L 159.730054 93.428483
L 161.272764 87.589785
L 162.815475 93.516517
L 164.358185 81.216588
L 165.900896 88.907514
L 167.443606 99.27753
L 168.986317 91.956694
L 170.529027 98.453833
L 172.071738 107.446349
L 173.614448 96.51809
L 175.157158 107.927254
L 176.699869 106.569716
L 178.242579 103.008317
L 179.78529 107.632495
L 181.328 109.968522
L 182.870711 117.497744
L 184.413421 114.93248
L 185.956132 119.348465
L 187.498842 119.589825
L 189.041552 126.187971
L 190.584263 124.382348
L 192.126973 126.017309
L 193.669684 130.08305
L 195.212394 126.125112
L 196.755105 137.618333
L 198.297815 145.47189
L 199.840526 136.263073
L 201.383236 143.307992
L 202.925946 129.888796
L 204.468657 139.219779
L 206.011367 147.585478
L 207.554078 136.829966
L 209.096788 149.330983
L 210.639499 153.932959
L 212.182209 153.232278
L 213.72492 148.104646
L 215.26763 153.216949
L 216.81034 168.095077
L 218.353051 151.776126
L 219.895761 162.267614
L 221.438472 151.900146
L 222.981182 160.458284
L 224.523893 161.292406
L 226.066603 171.960463
L 227.609314 166.21698
L 229.152024 157.040712
L 230.694734 168.32605
L 232.237445 165.56966
L 233.780155 173.924431
L 235.322866 175.644685
L 236.865576 171.688484
L 238.408287 168.220795
L 239.950997 171.511528
L 241.493708 169.275272
L 243.036418 177.361193
L 244.579128 173.59635
L 246.121839 173.562257
L 247.664549 169.610651
L 249.20726 187.407877
L 250.74997 172.761263
L 252.292681 169.454005
L 253.835391 178.859469
L 255.378102 175.101963
L 256.920812 175.636306
L 258.463522 182.782387
L 260.006233 179.078705
L 261.548943 181.919383
L 263.091654 182.059504
L 264.634364 175.778859
L 266.177075 185.400973
L 267.719785 183.244372
L 269.262496 178.941866
L 270.805206 172.162401
L 272.347916 188.458416
L 273.890627 173.816397
L 275.433337 176.316369
L 276.976048 178.066005
L 278.518758 180.692275
L 280.061469 185.433715
L 281.604179 182.307853
L 283.14689 182.895943
L 284.6896 178.22018
L 286.23231 187.102924
L 287.775021 189.068746
L 289.317731 184.24626
L 290.860442 185.695925
L 292.403152 174.878017
L 293.945863 184.032546
L 295.488573 185.017021
L 297.031283 183.640061
L 298.573994 200.312074
L 300.116704 185.915701
L 301.659415 184.515652
L 303.202125 182.743157
L 304.744836 187.129875
L 306.287546 189.671972
L 307.830257 193.901309
L 309.372967 186.848707
L 310.915677 190.25122
L 312.458388 184.026716
L 315.543809 195.597044
L 317.086519 192.879729
L 318.62923 192.112675
L 320.17194 197.735266
L 321.714651 198.152655
L 323.257361 197.264438
L 324.800071 195.255565
L 326.342782 188.242578
L 327.885492 190.446593
L 329.428203 191.652813
L 330.970913 195.020499
L 332.513624 190.658879
L 334.056334 191.55725
L 335.599045 187.642904
L 337.141755 199.558225
L 338.684465 190.796721
L 340.227176 197.121576
L 341.769886 194.243174
L 343.312597 202.567713
L 344.855307 190.836028
L 346.398018 193.240012
L 347.940728 198.876348
L 349.483439 203.294804
L 351.026149 191.016536
L 352.568859 184.940879
L 354.11157 196.789904
L 355.65428 194.748906
L 357.196991 193.442567
L 358.739701 195.012545
L 360.282412 195.392944
L 361.825122 197.33197
L 363.367833 198.763024
L 364.910543 195.051542
L 366.453253 194.307076
L 369.538674 198.148292
L 371.081385 195.139654
L 372.624095 195.410474
L 374.166806 193.492376
L 375.709516 190.143571
L 377.252227 192.07167
L 378.794937 188.156938
L 380.337647 195.30603
L 381.880358 198.459847
L 383.423068 194.586198
L 384.965779 189.652743
L 386.508489 197.068293
L 388.0512 192.198778
L 389.59391 196.747895
L 391.136621 189.677841
L 392.679331 196.47692
L 394.222041 199.81781
L 397.307462 190.352613
L 398.850173 198.213815
L 400.392883 187.021917
L 401.935594 204.495116
L 403.478304 190.906223
L 405.021015 201.738958
L 406.563725 194.154175
L 408.106435 197.139338
L 409.649146 201.350064
L 411.191856 194.400323
L 412.734567 199.844104
L 414.277277 201.538642
L 415.819988 194.352831
L 417.362698 199.31841
L 418.905409 199.915188
L 420.448119 200.261648
L 421.990829 191.251332
L 423.53354 192.97479
L 425.07625 198.359766
L 426.618961 186.775731
L 428.161671 198.049794
L 429.704382 195.539513
L 431.247092 200.005963
L 432.789803 200.037122
L 434.332513 205.116297
L 435.875223 199.220414
L 437.417934 196.774576
L 438.960644 198.352276
L 440.503355 198.915809
L 442.046065 202.082059
L 443.588776 200.245006
L 445.131486 193.821383
L 446.674197 199.892098
L 448.216907 202.645824
L 449.759617 199.577184
L 451.302328 201.18724
L 452.845038 203.676478
L 454.387749 197.63337
L 455.930459 193.639755
L 457.47317 204.119582
L 459.01588 193.928723
L 460.558591 193.992818
L 462.101301 199.940208
L 463.644011 195.320934
L 465.186722 192.934248
L 466.729432 204.796594
L 468.272143 200.071371
L 469.814853 194.794468
L 471.357564 210.987854
L 472.900274 205.633458
L 474.442985 196.414138
L 475.985695 201.849387
L 477.528405 194.444957
L 479.071116 199.741166
L 480.613826 201.520109
L 482.156537 195.377963
L 483.699247 198.789164
L 485.241958 194.100351
L 486.784668 198.734335
L 488.327379 204.151321
L 489.870089 200.565288
L 491.412799 200.566794
L 492.95551 203.913706
L 494.49822 196.067099
L 496.040931 197.658545
L 497.583641 208.278415
L 499.126352 197.409849
L 500.669062 198.282775
L 502.211773 197.713643
L 503.754483 193.089775
L 505.297193 198.489115
L 506.839904 197.828937
L 508.382614 205.924974
L 509.925325 201.507869
L 511.468035 208.301157
L 513.010746 196.462287
L 514.553456 200.653824
L 516.096167 201.308827
L 517.638877 202.240443
L 519.181587 208.343707
L 520.724298 198.013036
L 522.267008 201.772318
L 523.809719 193.311366
L 525.352429 200.744058
L 526.89514 200.502699
L 528.43785 196.28286
L 529.980561 209.80148
L 531.523271 191.087697
L 533.065981 201.534549
L 534.608692 204.484383
L 536.151402 204.18499
L 537.694113 204.946638
L 539.236823 204.483996
L 540.779534 203.137038
L 542.322244 196.718551
L 543.864954 197.840829
L 545.407665 195.366071
L 546.950375 200.164154
L 548.493086 203.164993
L 550.035796 199.046817
L 551.578507 201.109438
L 553.121217 195.77539
L 554.663928 198.395521
L 556.206638 197.979213
L 557.749348 194.758173
L 559.292059 208.963806
L 560.834769 207.366568
L 562.37748 203.529291
L 563.92019 205.496155
L 565.462901 195.36136
L 567.005611 201.63965
L 568.548322 204.424882
L 570.091032 205.539748
L 571.633742 199.864375
L 573.176453 199.450268
L 574.719163 201.04766
L 576.261874 206.100346
L 577.804584 194.521485
L 579.347295 205.121277
L 580.890005 204.68381
L 582.432716 200.099712
L 583.975426 193.68717
L 585.518136 201.724749
L 587.060847 196.625227
L 588.603557 197.517034
L 590.146268 195.534571
L 591.688978 203.894285
L 593.231689 202.079549
L 594.774399 201.617178
L 596.31711 200.618726
L 597.85982 193.192172
L 599.40253 203.494348
L 600.945241 198.415676
L 602.487951 203.862932
L 604.030662 198.72086
L 605.573372 203.470563
L 607.116083 186.961413
L 608.658793 200.317403
L 611.744214 204.832812
L 613.286924 203.019814
L 614.829635 206.312902
L 616.372345 201.79035
L 617.915056 204.203562
L 619.457766 192.809495
L 621.000477 198.114082
L 622.543187 206.171121
L 624.085898 202.244845
L 625.628608 208.550355
L 627.171318 204.5562
L 628.714029 194.488164
L 630.256739 202.458597
L 631.79945 203.8983
L 633.34216 208.096942
L 634.884871 202.151212
L 636.427581 198.780283
L 637.970292 199.529807
L 639.513002 199.606297
L 641.055712 206.456266
L 642.598423 199.645526
L 644.141133 203.642577
L 645.683844 199.765762
L 647.226554 197.080532
L 648.769265 198.349689
L 650.311975 200.836069
L 651.854686 202.58922
L 653.397396 195.034013
L 654.940106 204.821074
L 656.482817 207.140074
L 658.025527 201.26844
L 661.110948 204.923857
L 662.653659 213.113256
L 664.196369 203.188353
L 665.73908 197.578658
L 667.28179 209.811982
L 668.8245 201.713938
L 670.367211 201.989083
L 671.909921 204.47473
L 673.452632 202.482922
L 674.995342 202.431878
L 676.538053 199.218561
L 678.080763 199.595871
L 679.623474 194.047376
L 681.166184 195.824427
L 682.708894 201.434585
L 684.251605 200.143613
L 685.794315 203.631534
L 687.337026 203.807718
L 688.879736 202.793899
L 690.422447 198.956698
L 690.422447 198.956698
" clip-path="url(#p01456695b6)" style="fill: none; stroke: #596f80; stroke-opacity: 0.45; stroke-width: 1.5; stroke-linecap: square"/>
   </g>
   <g id="line2d_16">
    <path d="M 74.88098 162.848483
L 135.046687 167.79746
L 196.755105 181.245769
L 258.463522 204.873817
L 320.17194 203.743662
L 381.880358 198.049254
L 443.588776 205.869296
L 505.297193 202.528252
L 567.005611 205.361556
L 628.714029 209.381002
L 690.422447 204.281287
" clip-path="url(#p01456695b6)" style="fill: none; stroke: #178477; stroke-width: 1.5; stroke-linecap: square"/>
    <defs>
     <path id="m80d3ca466f" d="M 0 3
C 0.795609 3 1.55874 2.683901 2.12132 2.12132
C 2.683901 1.55874 3 0.795609 3 0
C 3 -0.795609 2.683901 -1.55874 2.12132 -2.12132
C 1.55874 -2.683901 0.795609 -3 0 -3
C -0.795609 -3 -1.55874 -2.683901 -2.12132 -2.12132
C -2.683901 -1.55874 -3 -0.795609 -3 0
C -3 0.795609 -2.683901 1.55874 -2.12132 2.12132
C -1.55874 2.683901 -0.795609 3 0 3
z
" style="stroke: #178477"/>
    </defs>
    <g clip-path="url(#p01456695b6)">
     <use xlink:href="#m80d3ca466f" x="74.88098" y="162.848483" style="fill: #178477; stroke: #178477"/>
     <use xlink:href="#m80d3ca466f" x="135.046687" y="167.79746" style="fill: #178477; stroke: #178477"/>
     <use xlink:href="#m80d3ca466f" x="196.755105" y="181.245769" style="fill: #178477; stroke: #178477"/>
     <use xlink:href="#m80d3ca466f" x="258.463522" y="204.873817" style="fill: #178477; stroke: #178477"/>
     <use xlink:href="#m80d3ca466f" x="320.17194" y="203.743662" style="fill: #178477; stroke: #178477"/>
     <use xlink:href="#m80d3ca466f" x="381.880358" y="198.049254" style="fill: #178477; stroke: #178477"/>
     <use xlink:href="#m80d3ca466f" x="443.588776" y="205.869296" style="fill: #178477; stroke: #178477"/>
     <use xlink:href="#m80d3ca466f" x="505.297193" y="202.528252" style="fill: #178477; stroke: #178477"/>
     <use xlink:href="#m80d3ca466f" x="567.005611" y="205.361556" style="fill: #178477; stroke: #178477"/>
     <use xlink:href="#m80d3ca466f" x="628.714029" y="209.381002" style="fill: #178477; stroke: #178477"/>
     <use xlink:href="#m80d3ca466f" x="690.422447" y="204.281287" style="fill: #178477; stroke: #178477"/>
    </g>
   </g>
   <g id="line2d_17">
    <path d="M 628.714029 222.198739
L 628.714029 22.318125
" clip-path="url(#p01456695b6)" style="fill: none; stroke-dasharray: 5.55,2.4; stroke-dashoffset: 0; stroke: #dc9141; stroke-width: 1.5"/>
   </g>
   <g id="patch_3">
    <path d="M 44.103906 222.198739
L 44.103906 22.318125
" style="fill: none; stroke: #000000; stroke-width: 0.8; stroke-linejoin: miter; stroke-linecap: square"/>
   </g>
   <g id="patch_4">
    <path d="M 44.103906 222.198739
L 721.19952 222.198739
" style="fill: none; stroke: #000000; stroke-width: 0.8; stroke-linejoin: miter; stroke-linecap: square"/>
   </g>
   <g id="text_17">
    <text style="font-weight: 700; font-size: 12px; font-family: 'DejaVu Sans'; text-anchor: middle" x="382.651713" y="16.318125" transform="rotate(-0 382.651713 16.318125)">Actual CUDA training trace</text>
   </g>
   <g id="legend_1">
    <g id="line2d_18">
     <path d="M 289.087338 32.796875
L 297.087338 32.796875
L 305.087338 32.796875
" style="fill: none; stroke: #596f80; stroke-opacity: 0.45; stroke-width: 1.5; stroke-linecap: square"/>
    </g>
    <g id="text_18">
     <text style="font-size: 8px; font-family: 'DejaVu Sans'; text-anchor: start" x="311.487338" y="35.596875" transform="rotate(-0 311.487338 35.596875)">Sampled train batch (different instances)</text>
    </g>
    <g id="line2d_19">
     <path d="M 289.087338 44.7975
L 297.087338 44.7975
L 305.087338 44.7975
" style="fill: none; stroke: #178477; stroke-width: 1.5; stroke-linecap: square"/>
     <g>
      <use xlink:href="#m80d3ca466f" x="297.087338" y="44.7975" style="fill: #178477; stroke: #178477"/>
     </g>
    </g>
    <g id="text_19">
     <text style="font-size: 8px; font-family: 'DejaVu Sans'; text-anchor: start" x="311.487338" y="47.5975" transform="rotate(-0 311.487338 47.5975)">Fixed validation set / greedy decode</text>
    </g>
    <g id="line2d_20">
     <path d="M 289.087338 56.798125
L 297.087338 56.798125
L 305.087338 56.798125
" style="fill: none; stroke-dasharray: 5.55,2.4; stroke-dashoffset: 0; stroke: #dc9141; stroke-width: 1.5"/>
    </g>
    <g id="text_20">
     <text style="font-size: 8px; font-family: 'DejaVu Sans'; text-anchor: start" x="311.487338" y="59.598125" transform="rotate(-0 311.487338 59.598125)">Selected checkpoint</text>
    </g>
   </g>
  </g>
 </g>
 <defs>
  <clipPath id="p01456695b6">
   <rect x="44.103906" y="22.318125" width="677.095614" height="199.880614"/>
  </clipPath>
 </defs>
</svg>
